<?xml version="1.0" encoding="utf-8"?>
<!-- Svg Vector Icons : http://www.onlinewebfonts.com/icon -->
<!DOCTYPE svg PUBLIC "-//W3C//DTD SVG 1.1//EN" "http://www.w3.org/Graphics/SVG/1.1/DTD/svg11.dtd">
<svg version="1.1" xmlns="http://www.w3.org/2000/svg" xmlns:xlink="http://www.w3.org/1999/xlink" x="0px" y="0px" viewBox="0 0 1000 1000" enable-background="new 0 0 1000 1000" xml:space="preserve">
<metadata> Svg Vector Icons : http://www.onlinewebfonts.com/icon </metadata>
<g><g><g><path d="M155.5,203.2v272.7v53.8c0,103,45.5,195.6,117.4,258.8v189.7c0,6.6,5.3,11.8,11.8,11.8h429.4c6.5,0,11.8-5.3,11.8-11.8V789.4c72.5-63.2,118.5-156.2,118.5-259.7c0-0.1,0-0.1,0-0.1c0-1.3-0.3-2.5-0.8-3.7c-0.1-0.2,0-0.6-0.2-0.8c-0.1-0.2-0.3-0.4-0.4-0.7c-0.6-1.2-1.2-2.2-2.2-3.2c0,0,0-0.1-0.1-0.1l-77.5-74.8c3.2-2.1,5.4-5.6,5.4-9.6V95.5c0-47.2-38.4-85.5-85.5-85.5c-47.1,0-85.5,38.4-85.5,85.5v154v15c-15.9-16.7-38.1-26.8-61.9-26.8c-31.4,0-58.8,17-73.7,42.2c-14.9-25.2-42.4-42.2-73.7-42.2c-24.4,0-46.3,10.3-61.9,26.7v-61.2c0-47.2-38.4-85.5-85.5-85.5C193.9,117.6,155.5,156,155.5,203.2z M296.5,916.9h405.8v49.4H296.5V916.9z M702.4,893.3H296.5v-85.8c57,41.9,127.4,66.7,203.5,66.7c75.6,0,145.5-24.5,202.4-65.9V893.3z M621.4,95.5c0-34.1,27.8-61.9,61.9-61.9c34.2,0,61.9,27.8,61.9,61.9v333.1L621.4,309.1v-25v-34.6L621.4,95.5L621.4,95.5z M535.9,261.3c23.2,0,44.3,13.1,54.9,33.6c-2.5,0.3-5,1.2-6.9,3.2c-52.9,52.9-52.9,139,0,191.9l12.4,12.4c-6.2,28.2-31.5,48.5-60.4,48.5c-34.2,0-61.9-27.8-61.9-61.9v-47.6V323.2C474,289.1,501.7,261.3,535.9,261.3z M645,551.2c-0.5-0.1-1-0.3-1.5-0.3h-49.1c8.8-8.3,16.1-18.3,20.8-29.8l30.1,30.1C645.1,551.2,645,551.2,645,551.2z M388.5,261.3c34.1,0,61.9,27.8,61.9,61.9v118.2c0,34.1-27.8,61.9-61.9,61.9c-34.1,0-61.9-27.8-61.9-61.9V323.2C326.6,289.1,354.3,261.3,388.5,261.3z M241,141.3c34.2,0,61.9,27.8,61.9,61.9v120v118.2c0,47.2,38.3,85.5,85.5,85.5c24.7,0,46.9-10.5,62.6-27.3c2.5,20.1,12.1,38,26,51.2H284.7c-6.6,0-11.8,5.3-11.8,11.8c0,6.5,5.3,11.8,11.8,11.8h314l-104.6,59.3c-5.7,3.2-7.7,10.4-4.5,16.1c2.2,3.8,6.2,6,10.3,6c2,0,4-0.5,5.8-1.5l143.5-81.5c0.4-0.3,0.7-0.7,1.1-1c0.7-0.5,1.3-1,1.9-1.6c0.5-0.6,0.8-1.2,1.2-1.8c0.4-0.6,0.7-1.2,1-2c0.2-0.8,0.3-1.6,0.5-2.4c0-0.5,0.3-0.9,0.3-1.5c0-0.2-0.1-0.4-0.2-0.7c0-0.3,0.1-0.5,0-0.7l50.6,50.5c2.3,2.3,5.3,3.5,8.4,3.5c3,0,6-1.2,8.4-3.5c4.6-4.6,4.6-12.1,0-16.7L600.6,473.3c-42.9-42.9-43.6-112.1-2.2-156c0.1,0.2,0.1,0.5,0.1,0.7c0.1,0.2,0.1,0.5,0.2,0.7c0.1,0.2,0.3,0.5,0.5,0.7c0.6,1.1,1.2,2.2,2.2,3.1c0,0,0,0.1,0.1,0.1l219.4,212c-1.4,95.1-44.4,180.1-111.5,238.1c-1.9,0.9-3.3,2.3-4.5,3.9c-55.6,46.2-127,74-204.8,74c-176.9,0-320.9-144-320.9-320.9v-53.8V203.2C179.1,169,206.9,141.3,241,141.3z"/></g></g><g></g><g></g><g></g><g></g><g></g><g></g><g></g><g></g><g></g><g></g><g></g><g></g><g></g><g></g><g></g></g>
</svg>